<?xml version="1.0" encoding="UTF-8" standalone="no"?>
<svg
   width="578.54071pt"
   height="581.76404pt"
   viewBox="0 0 578.54072 581.76404"
   version="1.1"
   id="svg2"
   sodipodi:docname="TestIndex.svg"
   inkscape:version="1.4.2 (f4327f4, 2025-05-13)"
   xmlns:inkscape="http://www.inkscape.org/namespaces/inkscape"
   xmlns:sodipodi="http://sodipodi.sourceforge.net/DTD/sodipodi-0.dtd"
   xmlns="http://www.w3.org/2000/svg"
   xmlns:svg="http://www.w3.org/2000/svg"
   xmlns:rdf="http://www.w3.org/1999/02/22-rdf-syntax-ns#"
   xmlns:cc="http://creativecommons.org/ns#"
   xmlns:dc="http://purl.org/dc/elements/1.1/">
  <sodipodi:namedview
     id="namedview2"
     pagecolor="#ffffff"
     bordercolor="#000000"
     borderopacity="0.25"
     inkscape:showpageshadow="2"
     inkscape:pageopacity="0.0"
     inkscape:pagecheckerboard="0"
     inkscape:deskcolor="#d1d1d1"
     inkscape:document-units="pt"
     showgrid="false"
     inkscape:zoom="0.74301455"
     inkscape:cx="309.54979"
     inkscape:cy="405.7794"
     inkscape:window-width="1920"
     inkscape:window-height="1009"
     inkscape:window-x="-8"
     inkscape:window-y="-8"
     inkscape:window-maximized="1"
     inkscape:current-layer="svg2" />
  <metadata
     id="metadata1">
    <rdf:RDF>
      <cc:Work>
        <dc:type
           rdf:resource="http://purl.org/dc/dcmitype/StillImage" />
        <dc:date>2026-03-27T12:30:21.703088</dc:date>
        <dc:format>image/svg+xml</dc:format>
        <dc:creator>
          <cc:Agent>
            <dc:title>Matplotlib v3.10.7, https://matplotlib.org/</dc:title>
          </cc:Agent>
        </dc:creator>
      </cc:Work>
    </rdf:RDF>
  </metadata>
  <defs
     id="defs1">
    <style
       type="text/css"
       id="style1">*{stroke-linejoin: round; stroke-linecap: butt}</style>
  </defs>
  <g
     id="patch_1"
     transform="translate(19.011282)">
    <path
       d="M 0,576 H 553.76526 V 0 H 0 Z"
       style="fill:none"
       id="path1" />
  </g>
  <g
     id="axes_1"
     transform="translate(19.011282)">
    <g
       id="line2d_1">
      <path
         d="m 259.66226,42.248924 -6.22277,5.31134 -6.73762,6.043759 -7.27439,6.823305 -8.02959,7.841267 -8.81591,8.927442 -9.62872,10.070063 -10.67164,11.483668 -11.94852,13.187302 -13.45174,15.18418 -14.93292,17.19728 -16.33002,19.15226 -16.68422,19.90956 -16.18335,19.65619 -14.462981,17.90755 -12.701663,16.0705 -10.964178,14.22009 -9.478653,12.64741 -8.239443,11.35807 -7.07188,10.11705 -6.136143,9.15482 -5.398698,8.45099 -4.579183,7.56932 -3.948478,6.93861 -3.465978,6.53514 -2.913512,5.95754 -2.492252,5.59638 -2.093518,5.25109 -1.718711,4.92182 -1.368912,4.60848 -1.044897,4.31083 -0.747168,4.02847 -0.475967,3.76089 -0.236322,3.65786 0.0011,3.41012 0.226017,3.31825 0.428474,3.08948 0.637495,3.00842 0.847688,2.92898 1.058793,2.85128 1.270542,2.77544 1.482667,2.70153 1.694897,2.62963 1.906961,2.55984 2.2199,2.60392 2.450369,2.53254 2.801371,2.56936 3.04936,2.49748 3.437869,2.5284 3.855408,2.55405 4.301993,2.57499 4.777355,2.59185 5.280916,2.60529 5.811746,2.61607 6.36853,2.62494 7.172716,2.71375 8.034886,2.79545 8.952207,2.87152 9.920157,2.94359 11.20513,3.08568 12.56189,3.22122 13.9764,3.35198 16.04572,3.61372 18.18925,3.86187 20.68439,4.15759 23.15591,4.42232 25.16335,4.57598 25.57552,4.4265 24.35678,3.99509 22.26986,3.4308 19.46218,2.77954 17.31404,2.25163 15.21978,1.75757 13.49996,1.33687 11.86395,0.95685 10.58566,0.63846 9.62927,0.36226 8.71949,0.1069 7.86048,-0.12428 7.05478,-0.32861 6.50836,-0.52422 5.79177,-0.6823 5.31517,-0.84201 4.86414,-0.98867 4.43895,-1.12146 4.03962,-1.23971 3.81415,-1.40217 3.44859,-1.50263 3.10867,-1.58707 2.91652,-1.73383 2.72454,-1.8832 2.42686,-1.94333 2.2523,-2.08418 2.07859,-2.22685 1.90599,-2.37112 1.7347,-2.51685 1.56495,-2.66383 1.39694,-2.81188 1.28289,-3.09891 1.10381,-3.26242 0.9274,-3.42641 0.78276,-3.75048 0.61822,-4.09687 0.42123,-4.29047 0.23393,-4.6666 0.0282,-5.06539 -0.19515,-5.48688 -0.43535,-5.93088 -0.69123,-6.39691 -0.99656,-7.11084 -1.29546,-7.63634 -1.65606,-8.42563 -2.04844,-9.25913 -2.53621,-10.39827 -2.99565,-11.32788 -3.55483,-12.56966 -4.23575,-14.15022 -5.05534,-16.08784 -5.91993,-18.07577 -6.91537,-20.38259 -7.91998,-22.63786 -8.6651,-24.09396 -8.98257,-24.32542 -8.61148,-22.69503 -7.926,-20.28431 -7.20185,-17.84157 -6.58396,-15.72857 -5.96529,-13.6872 -5.47091,-12.010099 -5.10181,-10.670819 -4.73921,-9.40467 -4.5011,-8.437668 -4.14959,-7.319886 -4.03953,-6.677037 -3.81431,-5.878834 -3.59123,-5.142766 -3.48971,-4.622964 -3.3902,-4.131062 -3.29216,-3.668041 -3.19497,-3.234534 -3.09806,-2.830857 -3.12654,-2.55384 -3.03104,-2.188542 -2.93445,-1.853579 -2.9659,-1.613545 -2.99972,-1.372426 -2.90308,-1.086438 -2.93817,-0.864772 -2.97526,-0.64302 -3.01429,-0.421462 -3.05521,-0.200378 -3.09799,0.01995 -3.14254,0.23926 -3.33485,0.483206 -3.38725,0.719676 -3.44139,0.95403 -3.65048,1.242734 -3.86898,1.559676 -3.93841,1.826363 -4.17126,2.177646 -4.41452,2.556001 -4.66854,2.960838 -4.93364,3.391268 -5.38542,3.980062 -5.68042,4.480516 -2.3428,1.924992 v 0"
         clip-path="url(#pe9bc152142)"
         style="fill:none;stroke:#083d77;stroke-width:0.5;stroke-linecap:square"
         id="path2" />
    </g>
  </g>
  <defs
     id="defs2">
    <clipPath
       id="pe9bc152142">
      <rect
         x="0"
         y="0"
         width="553.76526"
         height="576"
         id="rect2" />
    </clipPath>
  </defs>
  <g
     id="g4"
     transform="rotate(30,266.77418,286.00612)">
    <g
       id="g3">
      <path
         d="m 259.66226,42.248924 -6.22277,5.31134 -6.73762,6.043759 -7.27439,6.823305 -8.02959,7.841267 -8.81591,8.927442 -9.62872,10.070063 -10.67164,11.483668 -11.94852,13.187302 -13.45174,15.18418 -14.93292,17.19728 -16.33002,19.15226 -16.68422,19.90956 -16.18335,19.65619 -14.462981,17.90755 -12.701663,16.0705 -10.964178,14.22009 -9.478653,12.64741 -8.239443,11.35807 -7.07188,10.11705 -6.136143,9.15482 -5.398698,8.45099 -4.579183,7.56932 -3.948478,6.93861 -3.465978,6.53514 -2.913512,5.95754 -2.492252,5.59638 -2.093518,5.25109 -1.718711,4.92182 -1.368912,4.60848 -1.044897,4.31083 -0.747168,4.02847 -0.475967,3.76089 -0.236322,3.65786 0.0011,3.41012 0.226017,3.31825 0.428474,3.08948 0.637495,3.00842 0.847688,2.92898 1.058793,2.85128 1.270542,2.77544 1.482667,2.70153 1.694897,2.62963 1.906961,2.55984 2.2199,2.60392 2.450369,2.53254 2.801371,2.56936 3.04936,2.49748 3.437869,2.5284 3.855408,2.55405 4.301993,2.57499 4.777355,2.59185 5.280916,2.60529 5.811746,2.61607 6.36853,2.62494 7.172716,2.71375 8.034886,2.79545 8.952207,2.87152 9.920157,2.94359 11.20513,3.08568 12.56189,3.22122 13.9764,3.35198 16.04572,3.61372 18.18925,3.86187 20.68439,4.15759 23.15591,4.42232 25.16335,4.57598 25.57552,4.4265 24.35678,3.99509 22.26986,3.4308 19.46218,2.77954 17.31404,2.25163 15.21978,1.75757 13.49996,1.33687 11.86395,0.95685 10.58566,0.63846 9.62927,0.36226 8.71949,0.1069 7.86048,-0.12428 7.05478,-0.32861 6.50836,-0.52422 5.79177,-0.6823 5.31517,-0.84201 4.86414,-0.98867 4.43895,-1.12146 4.03962,-1.23971 3.81415,-1.40217 3.44859,-1.50263 3.10867,-1.58707 2.91652,-1.73383 2.72454,-1.8832 2.42686,-1.94333 2.2523,-2.08418 2.07859,-2.22685 1.90599,-2.37112 1.7347,-2.51685 1.56495,-2.66383 1.39694,-2.81188 1.28289,-3.09891 1.10381,-3.26242 0.9274,-3.42641 0.78276,-3.75048 0.61822,-4.09687 0.42123,-4.29047 0.23393,-4.6666 0.0282,-5.06539 -0.19515,-5.48688 -0.43535,-5.93088 -0.69123,-6.39691 -0.99656,-7.11084 -1.29546,-7.63634 -1.65606,-8.42563 -2.04844,-9.25913 -2.53621,-10.39827 -2.99565,-11.32788 -3.55483,-12.56966 -4.23575,-14.15022 -5.05534,-16.08784 -5.91993,-18.07577 -6.91537,-20.38259 -7.91998,-22.63786 -8.6651,-24.09396 -8.98257,-24.32542 -8.61148,-22.69503 -7.926,-20.28431 -7.20185,-17.84157 -6.58396,-15.72857 -5.96529,-13.6872 -5.47091,-12.010099 -5.10181,-10.670819 -4.73921,-9.40467 -4.5011,-8.437668 -4.14959,-7.319886 -4.03953,-6.677037 -3.81431,-5.878834 -3.59123,-5.142766 -3.48971,-4.622964 -3.3902,-4.131062 -3.29216,-3.668041 -3.19497,-3.234534 -3.09806,-2.830857 -3.12654,-2.55384 -3.03104,-2.188542 -2.93445,-1.853579 -2.9659,-1.613545 -2.99972,-1.372426 -2.90308,-1.086438 -2.93817,-0.864772 -2.97526,-0.64302 -3.01429,-0.421462 -3.05521,-0.200378 -3.09799,0.01995 -3.14254,0.23926 -3.33485,0.483206 -3.38725,0.719676 -3.44139,0.95403 -3.65048,1.242734 -3.86898,1.559676 -3.93841,1.826363 -4.17126,2.177646 -4.41452,2.556001 -4.66854,2.960838 -4.93364,3.391268 -5.38542,3.980062 -5.68042,4.480516 -2.3428,1.924992 v 0"
         clip-path="url(#pe9bc152142)"
         style="fill:none;stroke:#083d77;stroke-width:0.5;stroke-linecap:square"
         id="path3" />
    </g>
  </g>
  <g
     id="g6"
     transform="rotate(45,259.31339,297.33028)">
    <g
       id="g5">
      <path
         d="m 259.66226,42.248924 -6.22277,5.31134 -6.73762,6.043759 -7.27439,6.823305 -8.02959,7.841267 -8.81591,8.927442 -9.62872,10.070063 -10.67164,11.483668 -11.94852,13.187302 -13.45174,15.18418 -14.93292,17.19728 -16.33002,19.15226 -16.68422,19.90956 -16.18335,19.65619 -14.462981,17.90755 -12.701663,16.0705 -10.964178,14.22009 -9.478653,12.64741 -8.239443,11.35807 -7.07188,10.11705 -6.136143,9.15482 -5.398698,8.45099 -4.579183,7.56932 -3.948478,6.93861 -3.465978,6.53514 -2.913512,5.95754 -2.492252,5.59638 -2.093518,5.25109 -1.718711,4.92182 -1.368912,4.60848 -1.044897,4.31083 -0.747168,4.02847 -0.475967,3.76089 -0.236322,3.65786 0.0011,3.41012 0.226017,3.31825 0.428474,3.08948 0.637495,3.00842 0.847688,2.92898 1.058793,2.85128 1.270542,2.77544 1.482667,2.70153 1.694897,2.62963 1.906961,2.55984 2.2199,2.60392 2.450369,2.53254 2.801371,2.56936 3.04936,2.49748 3.437869,2.5284 3.855408,2.55405 4.301993,2.57499 4.777355,2.59185 5.280916,2.60529 5.811746,2.61607 6.36853,2.62494 7.172716,2.71375 8.034886,2.79545 8.952207,2.87152 9.920157,2.94359 11.20513,3.08568 12.56189,3.22122 13.9764,3.35198 16.04572,3.61372 18.18925,3.86187 20.68439,4.15759 23.15591,4.42232 25.16335,4.57598 25.57552,4.4265 24.35678,3.99509 22.26986,3.4308 19.46218,2.77954 17.31404,2.25163 15.21978,1.75757 13.49996,1.33687 11.86395,0.95685 10.58566,0.63846 9.62927,0.36226 8.71949,0.1069 7.86048,-0.12428 7.05478,-0.32861 6.50836,-0.52422 5.79177,-0.6823 5.31517,-0.84201 4.86414,-0.98867 4.43895,-1.12146 4.03962,-1.23971 3.81415,-1.40217 3.44859,-1.50263 3.10867,-1.58707 2.91652,-1.73383 2.72454,-1.8832 2.42686,-1.94333 2.2523,-2.08418 2.07859,-2.22685 1.90599,-2.37112 1.7347,-2.51685 1.56495,-2.66383 1.39694,-2.81188 1.28289,-3.09891 1.10381,-3.26242 0.9274,-3.42641 0.78276,-3.75048 0.61822,-4.09687 0.42123,-4.29047 0.23393,-4.6666 0.0282,-5.06539 -0.19515,-5.48688 -0.43535,-5.93088 -0.69123,-6.39691 -0.99656,-7.11084 -1.29546,-7.63634 -1.65606,-8.42563 -2.04844,-9.25913 -2.53621,-10.39827 -2.99565,-11.32788 -3.55483,-12.56966 -4.23575,-14.15022 -5.05534,-16.08784 -5.91993,-18.07577 -6.91537,-20.38259 -7.91998,-22.63786 -8.6651,-24.09396 -8.98257,-24.32542 -8.61148,-22.69503 -7.926,-20.28431 -7.20185,-17.84157 -6.58396,-15.72857 -5.96529,-13.6872 -5.47091,-12.010099 -5.10181,-10.670819 -4.73921,-9.40467 -4.5011,-8.437668 -4.14959,-7.319886 -4.03953,-6.677037 -3.81431,-5.878834 -3.59123,-5.142766 -3.48971,-4.622964 -3.3902,-4.131062 -3.29216,-3.668041 -3.19497,-3.234534 -3.09806,-2.830857 -3.12654,-2.55384 -3.03104,-2.188542 -2.93445,-1.853579 -2.9659,-1.613545 -2.99972,-1.372426 -2.90308,-1.086438 -2.93817,-0.864772 -2.97526,-0.64302 -3.01429,-0.421462 -3.05521,-0.200378 -3.09799,0.01995 -3.14254,0.23926 -3.33485,0.483206 -3.38725,0.719676 -3.44139,0.95403 -3.65048,1.242734 -3.86898,1.559676 -3.93841,1.826363 -4.17126,2.177646 -4.41452,2.556001 -4.66854,2.960838 -4.93364,3.391268 -5.38542,3.980062 -5.68042,4.480516 -2.3428,1.924992 v 0"
         clip-path="url(#pe9bc152142)"
         style="fill:none;stroke:#083d77;stroke-width:0.5;stroke-linecap:square"
         id="path4" />
    </g>
  </g>
  <g
     id="g8"
     transform="rotate(60,266.55976,308.611)">
    <g
       id="g7">
      <path
         d="m 259.66226,42.248924 -6.22277,5.31134 -6.73762,6.043759 -7.27439,6.823305 -8.02959,7.841267 -8.81591,8.927442 -9.62872,10.070063 -10.67164,11.483668 -11.94852,13.187302 -13.45174,15.18418 -14.93292,17.19728 -16.33002,19.15226 -16.68422,19.90956 -16.18335,19.65619 -14.462981,17.90755 -12.701663,16.0705 -10.964178,14.22009 -9.478653,12.64741 -8.239443,11.35807 -7.07188,10.11705 -6.136143,9.15482 -5.398698,8.45099 -4.579183,7.56932 -3.948478,6.93861 -3.465978,6.53514 -2.913512,5.95754 -2.492252,5.59638 -2.093518,5.25109 -1.718711,4.92182 -1.368912,4.60848 -1.044897,4.31083 -0.747168,4.02847 -0.475967,3.76089 -0.236322,3.65786 0.0011,3.41012 0.226017,3.31825 0.428474,3.08948 0.637495,3.00842 0.847688,2.92898 1.058793,2.85128 1.270542,2.77544 1.482667,2.70153 1.694897,2.62963 1.906961,2.55984 2.2199,2.60392 2.450369,2.53254 2.801371,2.56936 3.04936,2.49748 3.437869,2.5284 3.855408,2.55405 4.301993,2.57499 4.777355,2.59185 5.280916,2.60529 5.811746,2.61607 6.36853,2.62494 7.172716,2.71375 8.034886,2.79545 8.952207,2.87152 9.920157,2.94359 11.20513,3.08568 12.56189,3.22122 13.9764,3.35198 16.04572,3.61372 18.18925,3.86187 20.68439,4.15759 23.15591,4.42232 25.16335,4.57598 25.57552,4.4265 24.35678,3.99509 22.26986,3.4308 19.46218,2.77954 17.31404,2.25163 15.21978,1.75757 13.49996,1.33687 11.86395,0.95685 10.58566,0.63846 9.62927,0.36226 8.71949,0.1069 7.86048,-0.12428 7.05478,-0.32861 6.50836,-0.52422 5.79177,-0.6823 5.31517,-0.84201 4.86414,-0.98867 4.43895,-1.12146 4.03962,-1.23971 3.81415,-1.40217 3.44859,-1.50263 3.10867,-1.58707 2.91652,-1.73383 2.72454,-1.8832 2.42686,-1.94333 2.2523,-2.08418 2.07859,-2.22685 1.90599,-2.37112 1.7347,-2.51685 1.56495,-2.66383 1.39694,-2.81188 1.28289,-3.09891 1.10381,-3.26242 0.9274,-3.42641 0.78276,-3.75048 0.61822,-4.09687 0.42123,-4.29047 0.23393,-4.6666 0.0282,-5.06539 -0.19515,-5.48688 -0.43535,-5.93088 -0.69123,-6.39691 -0.99656,-7.11084 -1.29546,-7.63634 -1.65606,-8.42563 -2.04844,-9.25913 -2.53621,-10.39827 -2.99565,-11.32788 -3.55483,-12.56966 -4.23575,-14.15022 -5.05534,-16.08784 -5.91993,-18.07577 -6.91537,-20.38259 -7.91998,-22.63786 -8.6651,-24.09396 -8.98257,-24.32542 -8.61148,-22.69503 -7.926,-20.28431 -7.20185,-17.84157 -6.58396,-15.72857 -5.96529,-13.6872 -5.47091,-12.010099 -5.10181,-10.670819 -4.73921,-9.40467 -4.5011,-8.437668 -4.14959,-7.319886 -4.03953,-6.677037 -3.81431,-5.878834 -3.59123,-5.142766 -3.48971,-4.622964 -3.3902,-4.131062 -3.29216,-3.668041 -3.19497,-3.234534 -3.09806,-2.830857 -3.12654,-2.55384 -3.03104,-2.188542 -2.93445,-1.853579 -2.9659,-1.613545 -2.99972,-1.372426 -2.90308,-1.086438 -2.93817,-0.864772 -2.97526,-0.64302 -3.01429,-0.421462 -3.05521,-0.200378 -3.09799,0.01995 -3.14254,0.23926 -3.33485,0.483206 -3.38725,0.719676 -3.44139,0.95403 -3.65048,1.242734 -3.86898,1.559676 -3.93841,1.826363 -4.17126,2.177646 -4.41452,2.556001 -4.66854,2.960838 -4.93364,3.391268 -5.38542,3.980062 -5.68042,4.480516 -2.3428,1.924992 v 0"
         clip-path="url(#pe9bc152142)"
         style="fill:none;stroke:#083d77;stroke-width:0.5;stroke-linecap:square"
         id="path6" />
    </g>
  </g>
  <g
     id="g10"
     transform="rotate(75,278.34698,310.74546)">
    <g
       id="g9">
      <path
         d="m 259.66226,42.248924 -6.22277,5.31134 -6.73762,6.043759 -7.27439,6.823305 -8.02959,7.841267 -8.81591,8.927442 -9.62872,10.070063 -10.67164,11.483668 -11.94852,13.187302 -13.45174,15.18418 -14.93292,17.19728 -16.33002,19.15226 -16.68422,19.90956 -16.18335,19.65619 -14.462981,17.90755 -12.701663,16.0705 -10.964178,14.22009 -9.478653,12.64741 -8.239443,11.35807 -7.07188,10.11705 -6.136143,9.15482 -5.398698,8.45099 -4.579183,7.56932 -3.948478,6.93861 -3.465978,6.53514 -2.913512,5.95754 -2.492252,5.59638 -2.093518,5.25109 -1.718711,4.92182 -1.368912,4.60848 -1.044897,4.31083 -0.747168,4.02847 -0.475967,3.76089 -0.236322,3.65786 0.0011,3.41012 0.226017,3.31825 0.428474,3.08948 0.637495,3.00842 0.847688,2.92898 1.058793,2.85128 1.270542,2.77544 1.482667,2.70153 1.694897,2.62963 1.906961,2.55984 2.2199,2.60392 2.450369,2.53254 2.801371,2.56936 3.04936,2.49748 3.437869,2.5284 3.855408,2.55405 4.301993,2.57499 4.777355,2.59185 5.280916,2.60529 5.811746,2.61607 6.36853,2.62494 7.172716,2.71375 8.034886,2.79545 8.952207,2.87152 9.920157,2.94359 11.20513,3.08568 12.56189,3.22122 13.9764,3.35198 16.04572,3.61372 18.18925,3.86187 20.68439,4.15759 23.15591,4.42232 25.16335,4.57598 25.57552,4.4265 24.35678,3.99509 22.26986,3.4308 19.46218,2.77954 17.31404,2.25163 15.21978,1.75757 13.49996,1.33687 11.86395,0.95685 10.58566,0.63846 9.62927,0.36226 8.71949,0.1069 7.86048,-0.12428 7.05478,-0.32861 6.50836,-0.52422 5.79177,-0.6823 5.31517,-0.84201 4.86414,-0.98867 4.43895,-1.12146 4.03962,-1.23971 3.81415,-1.40217 3.44859,-1.50263 3.10867,-1.58707 2.91652,-1.73383 2.72454,-1.8832 2.42686,-1.94333 2.2523,-2.08418 2.07859,-2.22685 1.90599,-2.37112 1.7347,-2.51685 1.56495,-2.66383 1.39694,-2.81188 1.28289,-3.09891 1.10381,-3.26242 0.9274,-3.42641 0.78276,-3.75048 0.61822,-4.09687 0.42123,-4.29047 0.23393,-4.6666 0.0282,-5.06539 -0.19515,-5.48688 -0.43535,-5.93088 -0.69123,-6.39691 -0.99656,-7.11084 -1.29546,-7.63634 -1.65606,-8.42563 -2.04844,-9.25913 -2.53621,-10.39827 -2.99565,-11.32788 -3.55483,-12.56966 -4.23575,-14.15022 -5.05534,-16.08784 -5.91993,-18.07577 -6.91537,-20.38259 -7.91998,-22.63786 -8.6651,-24.09396 -8.98257,-24.32542 -8.61148,-22.69503 -7.926,-20.28431 -7.20185,-17.84157 -6.58396,-15.72857 -5.96529,-13.6872 -5.47091,-12.010099 -5.10181,-10.670819 -4.73921,-9.40467 -4.5011,-8.437668 -4.14959,-7.319886 -4.03953,-6.677037 -3.81431,-5.878834 -3.59123,-5.142766 -3.48971,-4.622964 -3.3902,-4.131062 -3.29216,-3.668041 -3.19497,-3.234534 -3.09806,-2.830857 -3.12654,-2.55384 -3.03104,-2.188542 -2.93445,-1.853579 -2.9659,-1.613545 -2.99972,-1.372426 -2.90308,-1.086438 -2.93817,-0.864772 -2.97526,-0.64302 -3.01429,-0.421462 -3.05521,-0.200378 -3.09799,0.01995 -3.14254,0.23926 -3.33485,0.483206 -3.38725,0.719676 -3.44139,0.95403 -3.65048,1.242734 -3.86898,1.559676 -3.93841,1.826363 -4.17126,2.177646 -4.41452,2.556001 -4.66854,2.960838 -4.93364,3.391268 -5.38542,3.980062 -5.68042,4.480516 -2.3428,1.924992 v 0"
         clip-path="url(#pe9bc152142)"
         style="fill:none;stroke:#083d77;stroke-width:0.5;stroke-linecap:square"
         id="path8" />
    </g>
  </g>
  <g
     id="g12"
     transform="rotate(90,288.34934,303.67405)">
    <g
       id="g11">
      <path
         d="m 259.66226,42.248924 -6.22277,5.31134 -6.73762,6.043759 -7.27439,6.823305 -8.02959,7.841267 -8.81591,8.927442 -9.62872,10.070063 -10.67164,11.483668 -11.94852,13.187302 -13.45174,15.18418 -14.93292,17.19728 -16.33002,19.15226 -16.68422,19.90956 -16.18335,19.65619 -14.462981,17.90755 -12.701663,16.0705 -10.964178,14.22009 -9.478653,12.64741 -8.239443,11.35807 -7.07188,10.11705 -6.136143,9.15482 -5.398698,8.45099 -4.579183,7.56932 -3.948478,6.93861 -3.465978,6.53514 -2.913512,5.95754 -2.492252,5.59638 -2.093518,5.25109 -1.718711,4.92182 -1.368912,4.60848 -1.044897,4.31083 -0.747168,4.02847 -0.475967,3.76089 -0.236322,3.65786 0.0011,3.41012 0.226017,3.31825 0.428474,3.08948 0.637495,3.00842 0.847688,2.92898 1.058793,2.85128 1.270542,2.77544 1.482667,2.70153 1.694897,2.62963 1.906961,2.55984 2.2199,2.60392 2.450369,2.53254 2.801371,2.56936 3.04936,2.49748 3.437869,2.5284 3.855408,2.55405 4.301993,2.57499 4.777355,2.59185 5.280916,2.60529 5.811746,2.61607 6.36853,2.62494 7.172716,2.71375 8.034886,2.79545 8.952207,2.87152 9.920157,2.94359 11.20513,3.08568 12.56189,3.22122 13.9764,3.35198 16.04572,3.61372 18.18925,3.86187 20.68439,4.15759 23.15591,4.42232 25.16335,4.57598 25.57552,4.4265 24.35678,3.99509 22.26986,3.4308 19.46218,2.77954 17.31404,2.25163 15.21978,1.75757 13.49996,1.33687 11.86395,0.95685 10.58566,0.63846 9.62927,0.36226 8.71949,0.1069 7.86048,-0.12428 7.05478,-0.32861 6.50836,-0.52422 5.79177,-0.6823 5.31517,-0.84201 4.86414,-0.98867 4.43895,-1.12146 4.03962,-1.23971 3.81415,-1.40217 3.44859,-1.50263 3.10867,-1.58707 2.91652,-1.73383 2.72454,-1.8832 2.42686,-1.94333 2.2523,-2.08418 2.07859,-2.22685 1.90599,-2.37112 1.7347,-2.51685 1.56495,-2.66383 1.39694,-2.81188 1.28289,-3.09891 1.10381,-3.26242 0.9274,-3.42641 0.78276,-3.75048 0.61822,-4.09687 0.42123,-4.29047 0.23393,-4.6666 0.0282,-5.06539 -0.19515,-5.48688 -0.43535,-5.93088 -0.69123,-6.39691 -0.99656,-7.11084 -1.29546,-7.63634 -1.65606,-8.42563 -2.04844,-9.25913 -2.53621,-10.39827 -2.99565,-11.32788 -3.55483,-12.56966 -4.23575,-14.15022 -5.05534,-16.08784 -5.91993,-18.07577 -6.91537,-20.38259 -7.91998,-22.63786 -8.6651,-24.09396 -8.98257,-24.32542 -8.61148,-22.69503 -7.926,-20.28431 -7.20185,-17.84157 -6.58396,-15.72857 -5.96529,-13.6872 -5.47091,-12.010099 -5.10181,-10.670819 -4.73921,-9.40467 -4.5011,-8.437668 -4.14959,-7.319886 -4.03953,-6.677037 -3.81431,-5.878834 -3.59123,-5.142766 -3.48971,-4.622964 -3.3902,-4.131062 -3.29216,-3.668041 -3.19497,-3.234534 -3.09806,-2.830857 -3.12654,-2.55384 -3.03104,-2.188542 -2.93445,-1.853579 -2.9659,-1.613545 -2.99972,-1.372426 -2.90308,-1.086438 -2.93817,-0.864772 -2.97526,-0.64302 -3.01429,-0.421462 -3.05521,-0.200378 -3.09799,0.01995 -3.14254,0.23926 -3.33485,0.483206 -3.38725,0.719676 -3.44139,0.95403 -3.65048,1.242734 -3.86898,1.559676 -3.93841,1.826363 -4.17126,2.177646 -4.41452,2.556001 -4.66854,2.960838 -4.93364,3.391268 -5.38542,3.980062 -5.68042,4.480516 -2.3428,1.924992 v 0"
         clip-path="url(#pe9bc152142)"
         style="fill:none;stroke:#083d77;stroke-width:0.5;stroke-linecap:square"
         id="path10" />
    </g>
  </g>
  <g
     id="g14"
     transform="rotate(105,290.91603,293.87569)">
    <g
       id="g13">
      <path
         d="m 259.66226,42.248924 -6.22277,5.31134 -6.73762,6.043759 -7.27439,6.823305 -8.02959,7.841267 -8.81591,8.927442 -9.62872,10.070063 -10.67164,11.483668 -11.94852,13.187302 -13.45174,15.18418 -14.93292,17.19728 -16.33002,19.15226 -16.68422,19.90956 -16.18335,19.65619 -14.462981,17.90755 -12.701663,16.0705 -10.964178,14.22009 -9.478653,12.64741 -8.239443,11.35807 -7.07188,10.11705 -6.136143,9.15482 -5.398698,8.45099 -4.579183,7.56932 -3.948478,6.93861 -3.465978,6.53514 -2.913512,5.95754 -2.492252,5.59638 -2.093518,5.25109 -1.718711,4.92182 -1.368912,4.60848 -1.044897,4.31083 -0.747168,4.02847 -0.475967,3.76089 -0.236322,3.65786 0.0011,3.41012 0.226017,3.31825 0.428474,3.08948 0.637495,3.00842 0.847688,2.92898 1.058793,2.85128 1.270542,2.77544 1.482667,2.70153 1.694897,2.62963 1.906961,2.55984 2.2199,2.60392 2.450369,2.53254 2.801371,2.56936 3.04936,2.49748 3.437869,2.5284 3.855408,2.55405 4.301993,2.57499 4.777355,2.59185 5.280916,2.60529 5.811746,2.61607 6.36853,2.62494 7.172716,2.71375 8.034886,2.79545 8.952207,2.87152 9.920157,2.94359 11.20513,3.08568 12.56189,3.22122 13.9764,3.35198 16.04572,3.61372 18.18925,3.86187 20.68439,4.15759 23.15591,4.42232 25.16335,4.57598 25.57552,4.4265 24.35678,3.99509 22.26986,3.4308 19.46218,2.77954 17.31404,2.25163 15.21978,1.75757 13.49996,1.33687 11.86395,0.95685 10.58566,0.63846 9.62927,0.36226 8.71949,0.1069 7.86048,-0.12428 7.05478,-0.32861 6.50836,-0.52422 5.79177,-0.6823 5.31517,-0.84201 4.86414,-0.98867 4.43895,-1.12146 4.03962,-1.23971 3.81415,-1.40217 3.44859,-1.50263 3.10867,-1.58707 2.91652,-1.73383 2.72454,-1.8832 2.42686,-1.94333 2.2523,-2.08418 2.07859,-2.22685 1.90599,-2.37112 1.7347,-2.51685 1.56495,-2.66383 1.39694,-2.81188 1.28289,-3.09891 1.10381,-3.26242 0.9274,-3.42641 0.78276,-3.75048 0.61822,-4.09687 0.42123,-4.29047 0.23393,-4.6666 0.0282,-5.06539 -0.19515,-5.48688 -0.43535,-5.93088 -0.69123,-6.39691 -0.99656,-7.11084 -1.29546,-7.63634 -1.65606,-8.42563 -2.04844,-9.25913 -2.53621,-10.39827 -2.99565,-11.32788 -3.55483,-12.56966 -4.23575,-14.15022 -5.05534,-16.08784 -5.91993,-18.07577 -6.91537,-20.38259 -7.91998,-22.63786 -8.6651,-24.09396 -8.98257,-24.32542 -8.61148,-22.69503 -7.926,-20.28431 -7.20185,-17.84157 -6.58396,-15.72857 -5.96529,-13.6872 -5.47091,-12.010099 -5.10181,-10.670819 -4.73921,-9.40467 -4.5011,-8.437668 -4.14959,-7.319886 -4.03953,-6.677037 -3.81431,-5.878834 -3.59123,-5.142766 -3.48971,-4.622964 -3.3902,-4.131062 -3.29216,-3.668041 -3.19497,-3.234534 -3.09806,-2.830857 -3.12654,-2.55384 -3.03104,-2.188542 -2.93445,-1.853579 -2.9659,-1.613545 -2.99972,-1.372426 -2.90308,-1.086438 -2.93817,-0.864772 -2.97526,-0.64302 -3.01429,-0.421462 -3.05521,-0.200378 -3.09799,0.01995 -3.14254,0.23926 -3.33485,0.483206 -3.38725,0.719676 -3.44139,0.95403 -3.65048,1.242734 -3.86898,1.559676 -3.93841,1.826363 -4.17126,2.177646 -4.41452,2.556001 -4.66854,2.960838 -4.93364,3.391268 -5.38542,3.980062 -5.68042,4.480516 -2.3428,1.924992 v 0"
         clip-path="url(#pe9bc152142)"
         style="fill:none;stroke:#083d77;stroke-width:0.5;stroke-linecap:square"
         id="path12" />
    </g>
  </g>
  <g
     id="g16"
     transform="rotate(15,266.77418,322.73309)">
    <g
       id="g15">
      <path
         d="m 259.66226,42.248924 -6.22277,5.31134 -6.73762,6.043759 -7.27439,6.823305 -8.02959,7.841267 -8.81591,8.927442 -9.62872,10.070063 -10.67164,11.483668 -11.94852,13.187302 -13.45174,15.18418 -14.93292,17.19728 -16.33002,19.15226 -16.68422,19.90956 -16.18335,19.65619 -14.462981,17.90755 -12.701663,16.0705 -10.964178,14.22009 -9.478653,12.64741 -8.239443,11.35807 -7.07188,10.11705 -6.136143,9.15482 -5.398698,8.45099 -4.579183,7.56932 -3.948478,6.93861 -3.465978,6.53514 -2.913512,5.95754 -2.492252,5.59638 -2.093518,5.25109 -1.718711,4.92182 -1.368912,4.60848 -1.044897,4.31083 -0.747168,4.02847 -0.475967,3.76089 -0.236322,3.65786 0.0011,3.41012 0.226017,3.31825 0.428474,3.08948 0.637495,3.00842 0.847688,2.92898 1.058793,2.85128 1.270542,2.77544 1.482667,2.70153 1.694897,2.62963 1.906961,2.55984 2.2199,2.60392 2.450369,2.53254 2.801371,2.56936 3.04936,2.49748 3.437869,2.5284 3.855408,2.55405 4.301993,2.57499 4.777355,2.59185 5.280916,2.60529 5.811746,2.61607 6.36853,2.62494 7.172716,2.71375 8.034886,2.79545 8.952207,2.87152 9.920157,2.94359 11.20513,3.08568 12.56189,3.22122 13.9764,3.35198 16.04572,3.61372 18.18925,3.86187 20.68439,4.15759 23.15591,4.42232 25.16335,4.57598 25.57552,4.4265 24.35678,3.99509 22.26986,3.4308 19.46218,2.77954 17.31404,2.25163 15.21978,1.75757 13.49996,1.33687 11.86395,0.95685 10.58566,0.63846 9.62927,0.36226 8.71949,0.1069 7.86048,-0.12428 7.05478,-0.32861 6.50836,-0.52422 5.79177,-0.6823 5.31517,-0.84201 4.86414,-0.98867 4.43895,-1.12146 4.03962,-1.23971 3.81415,-1.40217 3.44859,-1.50263 3.10867,-1.58707 2.91652,-1.73383 2.72454,-1.8832 2.42686,-1.94333 2.2523,-2.08418 2.07859,-2.22685 1.90599,-2.37112 1.7347,-2.51685 1.56495,-2.66383 1.39694,-2.81188 1.28289,-3.09891 1.10381,-3.26242 0.9274,-3.42641 0.78276,-3.75048 0.61822,-4.09687 0.42123,-4.29047 0.23393,-4.6666 0.0282,-5.06539 -0.19515,-5.48688 -0.43535,-5.93088 -0.69123,-6.39691 -0.99656,-7.11084 -1.29546,-7.63634 -1.65606,-8.42563 -2.04844,-9.25913 -2.53621,-10.39827 -2.99565,-11.32788 -3.55483,-12.56966 -4.23575,-14.15022 -5.05534,-16.08784 -5.91993,-18.07577 -6.91537,-20.38259 -7.91998,-22.63786 -8.6651,-24.09396 -8.98257,-24.32542 -8.61148,-22.69503 -7.926,-20.28431 -7.20185,-17.84157 -6.58396,-15.72857 -5.96529,-13.6872 -5.47091,-12.010099 -5.10181,-10.670819 -4.73921,-9.40467 -4.5011,-8.437668 -4.14959,-7.319886 -4.03953,-6.677037 -3.81431,-5.878834 -3.59123,-5.142766 -3.48971,-4.622964 -3.3902,-4.131062 -3.29216,-3.668041 -3.19497,-3.234534 -3.09806,-2.830857 -3.12654,-2.55384 -3.03104,-2.188542 -2.93445,-1.853579 -2.9659,-1.613545 -2.99972,-1.372426 -2.90308,-1.086438 -2.93817,-0.864772 -2.97526,-0.64302 -3.01429,-0.421462 -3.05521,-0.200378 -3.09799,0.01995 -3.14254,0.23926 -3.33485,0.483206 -3.38725,0.719676 -3.44139,0.95403 -3.65048,1.242734 -3.86898,1.559676 -3.93841,1.826363 -4.17126,2.177646 -4.41452,2.556001 -4.66854,2.960838 -4.93364,3.391268 -5.38542,3.980062 -5.68042,4.480516 -2.3428,1.924992 v 0"
         clip-path="url(#pe9bc152142)"
         style="fill:none;stroke:#083d77;stroke-width:0.5;stroke-linecap:square"
         id="path14" />
    </g>
  </g>
</svg>
